<svg width="172" height="56" viewBox="0 0 172 56" fill="none" xmlns="http://www.w3.org/2000/svg">
<path d="M34.8837 22.4644C35.569 19.6171 35.952 16.8205 35.7345 14.7177C35.1821 9.37911 31.2714 8.15576 29.0163 8.15719C26.6688 8.15861 23.3101 9.05363 22.3436 14.7001C21.5082 19.5822 23.9161 26.4469 27.4804 32.8213C27.4804 32.8213 27.0836 33.7643 26.0481 35.277C24.5486 37.4673 23.3433 38.6713 23.3433 38.6713C18.7287 30.463 15.1051 23.2849 15.1414 17.9692C15.235 4.30284 22.6655 0.458476 29.0162 0.500213C35.3669 0.54195 42.96 4.86928 42.96 17.85C42.96 19.2427 42.4727 21.6103 42.1317 23.1764C41.6459 23.1359 40.3294 22.9054 38.9046 22.7672C36.7018 22.5529 34.8837 22.4644 34.8837 22.4644Z" fill="white"/>
<path d="M17.3692 32.2979C14.6352 33.1096 12.0952 34.1659 10.438 35.4115C6.23045 38.5739 7.15849 42.6783 8.28727 44.6914C9.4623 46.7871 11.8933 49.3389 17.1187 47.3787C21.6365 45.6839 26.1978 40.1011 29.769 33.7309C29.769 33.7309 30.7596 33.6138 32.5476 33.7822C35.1368 34.0259 36.7506 34.5007 36.7506 34.5007C32.1644 42.7254 27.9477 49.5506 23.4652 52.176C11.9408 58.9255 4.99696 54.2121 1.85661 48.5199C-1.28348 42.8276 -1.44576 33.8832 9.45577 27.3928C10.6254 26.6965 12.8576 25.948 14.3432 25.4695C14.552 25.9235 15.0167 27.2142 15.613 28.556C16.5345 30.6301 17.3692 32.2979 17.3692 32.2979Z" fill="white"/>
<path d="M34.7818 42.7717C36.8303 44.8075 38.9876 46.5476 40.8624 47.4046C45.6221 49.5808 48.6051 46.6998 49.7313 44.6854C50.9039 42.5884 51.8315 39.1413 47.5727 35.4552C43.8901 32.2679 36.9209 30.9858 29.7854 30.9819C29.7854 30.9819 29.1919 30.1557 28.4394 28.475C27.3493 26.0409 26.9409 24.3623 26.9409 24.3623C36.1416 24.3456 43.9821 24.6985 48.4282 27.3889C59.8591 34.3056 59.3722 42.8636 56.1619 48.514C52.9518 54.1643 45.5207 58.7815 34.6189 52.2914C33.4494 51.5948 31.7047 49.9759 30.5599 48.8883C30.8368 48.4748 31.6886 47.4145 32.5172 46.2112C33.7986 44.351 34.7818 42.7717 34.7818 42.7717Z" fill="white"/>
<path d="M80.6916 33.2797H76.2323L70.4716 27.6832V33.2797H67.1707V18.0597H70.4716V23.6607L76.2323 18.0597H80.2577L72.5143 25.5097L80.6916 33.2797Z" fill="white"/>
<path d="M87.9594 18.1034H91.219L97.8043 33.2797H94.771L93.2231 29.9194H85.7691L84.2206 33.2797H81.269L87.9594 18.1034ZM87.1535 26.8299H92.0448L89.6512 20.9535H89.6301L87.1535 26.8299Z" fill="white"/>
<path d="M107.609 27.6607H107.735L111.554 33.3028H107.899L104.171 27.8314H102.572V33.3028H99.3328V18.0821H105.98C106.902 18.0821 107.691 18.2199 108.342 18.4958C108.997 18.7719 109.53 19.1403 109.945 19.5901C110.356 20.0454 110.655 20.5681 110.841 21.1577C111.029 21.7473 111.12 22.3458 111.12 22.9559C111.12 23.4654 111.05 23.9757 110.913 24.4777C110.777 24.9843 110.564 25.4474 110.283 25.8718C110.001 26.2977 109.641 26.668 109.199 26.9786C108.759 27.2913 108.228 27.5182 107.609 27.6607ZM105.101 20.6789H102.572V25.2565H105.101C105.489 25.2565 105.853 25.2279 106.199 25.1708C106.547 25.1124 106.846 25.0001 107.101 24.8291C107.357 24.6593 107.559 24.4245 107.711 24.1276C107.864 23.8284 107.941 23.439 107.941 22.956C107.941 22.4598 107.864 22.0611 107.711 21.7639C107.56 21.4672 107.357 21.2352 107.101 21.0727C106.846 20.9092 106.547 20.8019 106.199 20.7513C105.853 20.7048 105.489 20.6789 105.101 20.6789Z" fill="white"/>
<path d="M117.662 20.8912L112.978 20.9137V18.1034H125.551V20.9137L120.906 20.8912V33.2797H117.662V20.8912H117.662Z" fill="white"/>
<path d="M141.612 25.618C141.612 26.7085 141.408 27.7307 140.999 28.683C140.597 29.6334 140.048 30.4645 139.361 31.173C138.671 31.8828 137.865 32.4449 136.933 32.8545C136.004 33.2668 135.017 33.4738 133.972 33.4738C132.913 33.4738 131.921 33.2667 130.999 32.8545C130.079 32.445 129.272 31.8828 128.583 31.173C127.896 30.4645 127.353 29.6334 126.954 28.683C126.556 27.7305 126.354 26.7085 126.354 25.618C126.354 24.5242 126.556 23.5003 126.954 22.5402C127.353 21.5818 127.896 20.7491 128.583 20.039C129.272 19.3294 130.079 18.7721 130.999 18.3598C131.922 17.9442 132.913 17.7412 133.972 17.7412C135.017 17.7412 136.004 17.9442 136.933 18.3598C137.865 18.7721 138.671 19.3294 139.361 20.039C140.048 20.7491 140.597 21.5818 140.999 22.5402C141.408 23.5003 141.612 24.5242 141.612 25.618ZM133.972 20.9534C133.354 20.9534 132.774 21.0776 132.229 21.3259C131.682 21.5765 131.21 21.9144 130.804 22.338C130.399 22.7651 130.072 23.2586 129.834 23.818C129.592 24.3794 129.471 24.9798 129.471 25.6181C129.471 26.2542 129.592 26.8559 129.834 27.4175C130.072 27.9777 130.399 28.4657 130.804 28.8839C131.21 29.3026 131.682 29.6391 132.229 29.8853C132.774 30.1354 133.354 30.2564 133.972 30.2564C134.593 30.2564 135.169 30.1352 135.706 29.8853C136.245 29.6392 136.716 29.3027 137.122 28.8839C137.525 28.4656 137.846 27.9777 138.08 27.4175C138.314 26.8559 138.43 26.2542 138.43 25.6181C138.43 24.9798 138.314 24.3794 138.08 23.818C137.846 23.2586 137.525 22.7651 137.122 22.338C136.716 21.9144 136.245 21.5765 135.706 21.3259C135.168 21.0776 134.593 20.9534 133.972 20.9534Z" fill="white"/>
<path d="M142.54 30.6413L150.445 20.8912H143.157V18.0821H154.762V20.7193L146.856 30.4696H154.968V33.2798H142.54L142.54 30.6413Z" fill="white"/>
<path d="M162.151 18.1034H165.413L172 33.2797H168.963L167.415 29.9194H159.963L158.416 33.2797H155.462L162.151 18.1034ZM161.346 26.8299H166.238L163.846 20.9535H163.825L161.346 26.8299Z" fill="white"/>
<path d="M70.3823 39.6449C70.3823 39.9147 70.3311 40.1676 70.2299 40.4057C70.1303 40.6354 69.9961 40.842 69.8256 41.0193C69.6557 41.1954 69.4564 41.33 69.2264 41.4318C68.9978 41.5355 68.7539 41.5849 68.4954 41.5849C68.2347 41.5849 67.9904 41.5355 67.7618 41.4318C67.5348 41.3302 67.3355 41.1955 67.1643 41.0193C66.9961 40.842 66.8602 40.6354 66.7635 40.4057C66.6641 40.1676 66.6162 39.9147 66.6162 39.6449C66.6162 39.3763 66.6641 39.1247 66.7635 38.8869C66.8602 38.6504 66.9961 38.445 67.1643 38.2682C67.3355 38.0955 67.5348 37.9576 67.7618 37.8544C67.9904 37.7523 68.2347 37.7012 68.4954 37.7012C68.754 37.7012 68.998 37.7523 69.2264 37.8544C69.4564 37.9577 69.6557 38.0955 69.8256 38.2682C69.996 38.445 70.1303 38.6504 70.2299 38.8869C70.3311 39.1247 70.3823 39.3763 70.3823 39.6449ZM68.4954 38.4958C68.3431 38.4958 68.1995 38.5277 68.0655 38.5867C67.93 38.6487 67.8141 38.7314 67.7139 38.8382C67.6121 38.944 67.5333 39.0659 67.4747 39.2034C67.4145 39.3397 67.3851 39.4893 67.3851 39.6447C67.3851 39.8038 67.4144 39.9525 67.4747 40.0897C67.5334 40.2279 67.6121 40.3477 67.7139 40.4528C67.8142 40.5567 67.93 40.6407 68.0655 40.7009C68.1994 40.7615 68.3431 40.7916 68.4954 40.7916C68.648 40.7916 68.7917 40.7615 68.9239 40.7009C69.0572 40.6407 69.1729 40.5567 69.2726 40.4528C69.3723 40.3477 69.4525 40.228 69.5098 40.0897C69.5669 39.9525 69.596 39.8038 69.596 39.6447C69.596 39.4893 69.5669 39.3396 69.5098 39.2034C69.4524 39.0657 69.3723 38.944 69.2726 38.8382C69.1729 38.7314 69.0572 38.6487 68.9239 38.5867C68.7917 38.5277 68.6481 38.4958 68.4954 38.4958Z" fill="white"/>
<path d="M70.8435 37.7857H72.4851C72.7129 37.7857 72.9066 37.8208 73.0655 37.8891C73.2248 37.9591 73.3565 38.0482 73.4562 38.1573C73.5559 38.2711 73.629 38.4001 73.6753 38.5449C73.72 38.6925 73.7434 38.8381 73.7434 38.9879C73.7434 39.1439 73.72 39.2925 73.6753 39.4367C73.629 39.5792 73.5559 39.7081 73.4562 39.8188C73.3565 39.931 73.2246 40.0216 73.0655 40.0896C72.9065 40.1564 72.7128 40.1945 72.4851 40.1945H71.6437V41.5375H70.8436L70.8435 37.7857ZM71.6436 39.5523H72.2657C72.3591 39.5523 72.4454 39.5457 72.5299 39.5291C72.6161 39.5156 72.6912 39.4892 72.756 39.4504C72.8194 39.4098 72.8712 39.3538 72.9113 39.2772C72.9499 39.2043 72.97 39.1063 72.97 38.988C72.97 38.87 72.9499 38.7729 72.9113 38.6995C72.8712 38.6272 72.8194 38.5683 72.756 38.5292C72.6912 38.4879 72.6161 38.4608 72.5299 38.4466C72.4454 38.4351 72.3592 38.4287 72.2657 38.4287H71.6436V39.5523Z" fill="white"/>
<path d="M74.9264 40.8377H76.9797V41.5322H74.1514V37.7695H76.8069V38.4671H74.9264V39.308H76.5868V40.0388H74.9264V40.8377Z" fill="white"/>
<path d="M78.1165 38.7952V41.5422H77.4849V37.7768H78.1165H78.4003L80.027 40.1188V37.7768H80.704V41.5422H80.027L78.1165 38.7952Z" fill="white"/>
<path d="M83.4603 40.2933C83.4603 40.4175 83.4819 40.5265 83.5264 40.6133C83.5714 40.7008 83.6301 40.7727 83.7025 40.8254C83.7759 40.8822 83.8601 40.9225 83.9575 40.9461C84.0546 40.9742 84.1582 40.9844 84.2659 40.9844C84.337 40.9844 84.4146 40.9813 84.4945 40.9694C84.5764 40.954 84.6538 40.9335 84.7229 40.8953C84.7973 40.8638 84.8543 40.8153 84.9024 40.7535C84.9501 40.6898 84.9738 40.6135 84.9738 40.5165C84.9738 40.4161 84.9439 40.3351 84.879 40.2713C84.8171 40.2084 84.734 40.155 84.6318 40.1134C84.5309 40.0657 84.4157 40.0293 84.2861 40.0004C84.1579 39.9703 84.0252 39.9369 83.8938 39.8977C83.7581 39.8643 83.6259 39.819 83.4971 39.7689C83.3675 39.7186 83.2514 39.6549 83.1504 39.5737C83.0477 39.4907 82.965 39.3916 82.9017 39.2711C82.8391 39.1549 82.8084 39.0067 82.8084 38.8316C82.8084 38.6394 82.8477 38.4727 82.9272 38.3306C83.0078 38.1878 83.1108 38.0675 83.2406 37.9751C83.3704 37.8812 83.5163 37.809 83.6809 37.7652C83.8429 37.7182 84.0049 37.6996 84.1685 37.6996C84.3586 37.6996 84.5424 37.7182 84.7164 37.7633C84.8912 37.8072 85.0471 37.8783 85.1829 37.9751C85.3189 38.0705 85.4268 38.1963 85.5072 38.3525C85.5854 38.5045 85.6262 38.6884 85.6262 38.9067H84.8519C84.8447 38.7926 84.8227 38.6995 84.7834 38.6273C84.7434 38.5531 84.6918 38.4956 84.6274 38.4527C84.5622 38.4122 84.4884 38.382 84.4031 38.3637C84.3189 38.347 84.2272 38.3379 84.1338 38.3379C84.0689 38.3379 84.0049 38.345 83.9399 38.3589C83.875 38.375 83.8165 38.3986 83.764 38.432C83.7099 38.4687 83.6667 38.5103 83.6327 38.5663C83.5988 38.6197 83.5832 38.6867 83.5832 38.7633C83.5832 38.8381 83.5955 38.8968 83.6228 38.944C83.6512 38.9846 83.7053 39.0291 83.7841 39.0674C83.8642 39.1019 83.9739 39.14 84.1145 39.1805C84.2565 39.2202 84.4404 39.271 84.6681 39.3308C84.7119 39.3411 84.7691 39.3562 84.8415 39.3761C84.9126 39.3939 84.9883 39.4199 85.0686 39.4536C85.1475 39.4854 85.228 39.5292 85.3079 39.5825C85.3883 39.6358 85.4624 39.7028 85.5254 39.7759C85.5919 39.8555 85.6459 39.9459 85.6879 40.0537C85.7278 40.1629 85.748 40.284 85.748 40.4237C85.748 40.5952 85.7154 40.7552 85.6507 40.9029C85.5876 41.0494 85.4916 41.1754 85.3635 41.2821C85.2362 41.3904 85.078 41.4739 84.8896 41.5369C84.7021 41.5975 84.4828 41.6274 84.2346 41.6274C84.034 41.6274 83.8396 41.603 83.6511 41.5495C83.4628 41.4971 83.2976 41.415 83.1541 41.3073C83.0122 41.1974 82.8974 41.0592 82.8095 40.892C82.7247 40.723 82.6817 40.5226 82.6861 40.2933H83.4603Z" fill="white"/>
<path d="M89.7226 39.6448C89.7226 39.9147 89.6718 40.1676 89.5715 40.4057C89.4727 40.6354 89.3369 40.842 89.1685 41.0193C88.9985 41.1953 88.798 41.33 88.5676 41.4317C88.3394 41.5354 88.0955 41.5848 87.8376 41.5848C87.5766 41.5848 87.3309 41.5354 87.1034 41.4317C86.8755 41.3301 86.6772 41.1954 86.5082 41.0193C86.3381 40.842 86.2031 40.6354 86.1067 40.4057C86.0083 40.1676 85.9585 39.9147 85.9585 39.6448C85.9585 39.3762 86.0083 39.1246 86.1067 38.8868C86.2032 38.6504 86.3382 38.4449 86.5082 38.2681C86.6774 38.0955 86.8756 37.9576 87.1034 37.8544C87.3309 37.7522 87.5766 37.7012 87.8376 37.7012C88.0955 37.7012 88.3392 37.7522 88.5676 37.8544C88.798 37.9577 88.9987 38.0955 89.1685 38.2681C89.3369 38.4449 89.4727 38.6504 89.5715 38.8868C89.6718 39.1246 89.7226 39.3762 89.7226 39.6448ZM87.8376 38.4957C87.6846 38.4957 87.5412 38.5276 87.4069 38.5866C87.2715 38.6487 87.1558 38.7314 87.0547 38.8382C86.9557 38.944 86.8748 39.0658 86.8166 39.2033C86.7564 39.3397 86.7275 39.4893 86.7275 39.6447C86.7275 39.8037 86.7564 39.9524 86.8166 40.0897C86.8748 40.2278 86.9555 40.3476 87.0547 40.4527C87.1558 40.5567 87.2715 40.6407 87.4069 40.7008C87.541 40.7615 87.6846 40.7915 87.8376 40.7915C87.9917 40.7915 88.1335 40.7615 88.2655 40.7008C88.3979 40.6407 88.5143 40.5567 88.614 40.4527C88.7153 40.3476 88.793 40.228 88.8518 40.0897C88.909 39.9524 88.9369 39.8037 88.9369 39.6447C88.9369 39.4893 88.909 39.3396 88.8518 39.2033C88.793 39.0657 88.7153 38.944 88.614 38.8382C88.5143 38.7314 88.3978 38.6487 88.2655 38.5866C88.1335 38.5276 87.9917 38.4957 87.8376 38.4957Z" fill="white"/>
<path d="M93.274 40.1188C93.274 40.6268 93.135 41.006 92.8619 41.2542C92.5869 41.5016 92.2071 41.6273 91.7218 41.6273C91.2274 41.6273 90.8478 41.5016 90.575 41.2556C90.3063 41.0113 90.1707 40.6293 90.1707 40.1188V37.7857H90.9695V40.1188C90.9695 40.2232 90.9798 40.3186 90.9983 40.4175C91.0128 40.5147 91.0492 40.6039 91.1049 40.6826C91.1571 40.7568 91.2343 40.8189 91.3301 40.8649C91.4282 40.9104 91.5572 40.9332 91.7218 40.9332C92.005 40.9332 92.201 40.8682 92.3107 40.7361C92.4187 40.6054 92.4738 40.3982 92.4738 40.1188V37.7857H93.2742L93.274 40.1188Z" fill="white"/>
<path d="M95.9946 40.1505H96.0254L96.9688 41.5422H96.0673L95.1456 40.1945H94.7517V41.5422H93.9534V37.7857H95.5932C95.8201 37.7857 96.0146 37.8208 96.1751 37.8891C96.338 37.9591 96.4687 38.0482 96.5704 38.1573C96.673 38.2711 96.7464 38.4001 96.7929 38.5449C96.8396 38.6925 96.8607 38.8381 96.8607 38.9879C96.8607 39.1168 96.8437 39.2409 96.812 39.3668C96.7744 39.4892 96.7248 39.6056 96.654 39.7098C96.5859 39.8157 96.4979 39.9048 96.3869 39.9825C96.2778 40.0609 96.1491 40.1141 95.9946 40.1505ZM95.3755 38.4287H94.7517V39.556H95.3755C95.4712 39.556 95.5607 39.5485 95.6475 39.5371C95.7335 39.5212 95.8061 39.4924 95.8694 39.4535C95.9329 39.4097 95.9822 39.3537 96.0207 39.2772C96.0586 39.2043 96.0782 39.1063 96.0782 38.9881C96.0782 38.8666 96.0586 38.7678 96.0207 38.6956C95.9822 38.6198 95.9329 38.565 95.8694 38.526C95.8061 38.4847 95.7335 38.4575 95.6475 38.4466C95.5607 38.4351 95.4712 38.4287 95.3755 38.4287Z" fill="white"/>
<path d="M100.837 40.5353C100.758 40.6826 100.662 40.8235 100.55 40.946C100.438 41.0718 100.312 41.1802 100.171 41.2661C100.034 41.3554 99.881 41.4236 99.7174 41.4753C99.5522 41.5226 99.3822 41.5495 99.2046 41.5495C98.9501 41.5495 98.7124 41.4985 98.4853 41.3999C98.263 41.2997 98.0668 41.1637 97.9015 40.9922C97.7348 40.8188 97.6037 40.6182 97.5047 40.3872C97.409 40.1564 97.3596 39.908 97.3596 39.6446C97.3596 39.3863 97.4091 39.1402 97.5047 38.912C97.6037 38.6771 97.7348 38.4767 97.9015 38.3064C98.0667 38.1309 98.263 37.9949 98.4853 37.8972C98.7124 37.7935 98.95 37.7467 99.2046 37.7467C99.3792 37.7467 99.546 37.7695 99.7049 37.8142C99.864 37.8622 100.014 37.9304 100.151 38.0136C100.289 38.0977 100.411 38.2028 100.522 38.3222C100.631 38.4391 100.726 38.5722 100.804 38.7152C100.726 38.7575 100.664 38.7926 100.617 38.8175C100.568 38.8476 100.525 38.8699 100.478 38.8923C100.434 38.9152 100.386 38.9401 100.331 38.9688C100.276 38.9973 100.207 39.031 100.122 39.0745C100.034 38.912 99.9089 38.7804 99.7453 38.6805C99.5815 38.5831 99.4026 38.5306 99.2046 38.5306C99.0566 38.5306 98.9148 38.5608 98.7863 38.6198C98.6537 38.6806 98.5393 38.7618 98.442 38.8604C98.3417 38.9593 98.2645 39.0759 98.2088 39.217C98.1535 39.3539 98.1242 39.4957 98.1242 39.6447C98.1242 39.8004 98.1534 39.9447 98.2088 40.0797C98.2645 40.213 98.3418 40.3348 98.442 40.4325C98.5393 40.5353 98.6538 40.615 98.7863 40.6739C98.9148 40.731 99.0566 40.7614 99.2046 40.7614C99.4088 40.7614 99.5938 40.7041 99.7625 40.599C99.9305 40.4924 100.06 40.3522 100.151 40.1755C100.236 40.2231 100.306 40.2583 100.361 40.2867C100.411 40.3155 100.46 40.3417 100.503 40.3673C100.55 40.3918 100.595 40.4143 100.643 40.4398C100.69 40.4627 100.752 40.4966 100.837 40.5353Z" fill="white"/>
<path d="M102.013 40.8377H104.065V41.5322H101.238V37.7695H103.892V38.4671H102.013V39.308H103.671V40.0388H102.013V40.8377Z" fill="white"/>
<path d="M109.63 39.6595C109.63 39.6962 109.626 39.7552 109.615 39.8363C109.604 39.9206 109.59 40.0083 109.576 40.1037C109.556 40.1978 109.537 40.2918 109.508 40.3824C109.486 40.473 109.456 40.5431 109.422 40.5916C109.344 40.7421 109.244 40.8819 109.131 41.004C109.015 41.1282 108.886 41.2341 108.744 41.3225C108.6 41.4096 108.446 41.4786 108.282 41.5286C108.118 41.5757 107.945 41.6028 107.771 41.6028C107.511 41.6028 107.269 41.5512 107.041 41.4466C106.813 41.3479 106.614 41.2056 106.444 41.031C106.27 40.8539 106.134 40.6482 106.037 40.4126C105.937 40.1794 105.892 39.9247 105.892 39.6568C105.892 39.3913 105.937 39.1399 106.037 38.9066C106.134 38.6708 106.27 38.467 106.444 38.2872C106.615 38.1104 106.814 37.9717 107.041 37.8684C107.269 37.7695 107.511 37.7181 107.771 37.7181C107.946 37.7181 108.115 37.7412 108.279 37.7904C108.443 37.8407 108.594 37.9081 108.737 37.9951C108.878 38.0786 109.005 38.1825 109.12 38.3065C109.233 38.4227 109.334 38.5594 109.416 38.7077C109.334 38.7473 109.269 38.7841 109.221 38.8096C109.17 38.8382 109.122 38.8634 109.077 38.8869C109.031 38.9121 108.981 38.9353 108.926 38.9657C108.872 38.9907 108.801 39.0275 108.714 39.0747C108.618 38.9081 108.487 38.776 108.32 38.674C108.154 38.5723 107.97 38.523 107.771 38.523C107.618 38.523 107.473 38.5517 107.34 38.6119C107.204 38.6709 107.088 38.7506 106.991 38.8533C106.892 38.9543 106.813 39.0747 106.757 39.2123C106.699 39.3522 106.668 39.4992 106.668 39.657C106.668 39.8161 106.699 39.9654 106.757 40.0993C106.813 40.2403 106.892 40.3605 106.991 40.463C107.088 40.5657 107.204 40.6486 107.34 40.7042C107.473 40.7633 107.618 40.7917 107.771 40.7917C107.975 40.7917 108.16 40.741 108.33 40.6345C108.499 40.5298 108.634 40.3922 108.733 40.2252C108.64 40.2234 108.554 40.2204 108.484 40.2234C108.41 40.2234 108.336 40.2252 108.251 40.2252C108.168 40.2252 108.09 40.2252 108.019 40.2252C107.947 40.228 107.888 40.228 107.84 40.228C107.795 40.228 107.771 40.2265 107.771 40.2252V39.657C107.899 39.657 108.04 39.657 108.189 39.657C108.342 39.657 108.498 39.657 108.658 39.657C108.821 39.657 108.983 39.6582 109.15 39.6582C109.314 39.6595 109.473 39.6595 109.63 39.6595Z" fill="white"/>
<path d="M110.836 40.8377H112.891V41.5322H110.062V37.7695H112.717V38.4671H110.836V39.308H112.499V40.0388H110.836V40.8377Z" fill="white"/>
<path d="M116.972 39.6448C116.972 39.9147 116.924 40.1676 116.819 40.4057C116.72 40.6354 116.586 40.842 116.418 41.0193C116.25 41.1953 116.049 41.33 115.817 41.4317C115.59 41.5354 115.345 41.5848 115.087 41.5848C114.824 41.5848 114.581 41.5354 114.353 41.4317C114.125 41.3301 113.927 41.1954 113.757 41.0193C113.588 40.842 113.454 40.6354 113.356 40.4057C113.256 40.1676 113.206 39.9147 113.206 39.6448C113.206 39.3762 113.256 39.1246 113.356 38.8868C113.454 38.6504 113.588 38.4449 113.757 38.2681C113.927 38.0955 114.125 37.9576 114.353 37.8544C114.581 37.7522 114.824 37.7012 115.087 37.7012C115.345 37.7012 115.59 37.7522 115.817 37.8544C116.049 37.9577 116.25 38.0955 116.418 38.2681C116.586 38.4449 116.72 38.6504 116.819 38.8868C116.924 39.1246 116.972 39.3762 116.972 39.6448ZM115.087 38.4957C114.934 38.4957 114.79 38.5276 114.656 38.5866C114.522 38.6487 114.404 38.7314 114.305 38.8382C114.205 38.944 114.125 39.0658 114.066 39.2033C114.008 39.3397 113.977 39.4893 113.977 39.6447C113.977 39.8037 114.008 39.9524 114.066 40.0897C114.125 40.2278 114.205 40.3476 114.305 40.4527C114.404 40.5567 114.522 40.6407 114.656 40.7008C114.79 40.7615 114.934 40.7915 115.087 40.7915C115.24 40.7915 115.382 40.7615 115.514 40.7008C115.647 40.6407 115.763 40.5567 115.864 40.4527C115.965 40.3476 116.044 40.228 116.101 40.0897C116.16 39.9524 116.189 39.8037 116.189 39.6447C116.189 39.4893 116.16 39.3396 116.101 39.2033C116.044 39.0657 115.965 38.944 115.864 38.8382C115.763 38.7314 115.647 38.6487 115.514 38.5866C115.382 38.5276 115.24 38.4957 115.087 38.4957Z" fill="white"/>
<path d="M117.982 40.2933C117.982 40.4175 118.002 40.5265 118.047 40.6133C118.093 40.7008 118.15 40.7727 118.223 40.8254C118.297 40.8822 118.382 40.9225 118.477 40.9461C118.576 40.9742 118.678 40.9844 118.786 40.9844C118.856 40.9844 118.934 40.9813 119.016 40.9694C119.097 40.954 119.173 40.9335 119.246 40.8953C119.316 40.8638 119.376 40.8153 119.424 40.7535C119.472 40.6898 119.495 40.6135 119.495 40.5165C119.495 40.4161 119.465 40.3351 119.401 40.2713C119.337 40.2084 119.254 40.155 119.152 40.1134C119.05 40.0657 118.938 40.0293 118.808 40.0004C118.678 39.9703 118.547 39.9369 118.414 39.8977C118.276 39.8643 118.145 39.819 118.018 39.7689C117.887 39.7186 117.773 39.6549 117.671 39.5737C117.568 39.4907 117.486 39.3916 117.424 39.2711C117.359 39.1549 117.329 39.0067 117.329 38.8316C117.329 38.6394 117.369 38.4727 117.447 38.3306C117.528 38.1878 117.633 38.0675 117.761 37.9751C117.892 37.8812 118.037 37.809 118.201 37.7652C118.364 37.7182 118.525 37.6996 118.69 37.6996C118.88 37.6996 119.064 37.7182 119.237 37.7633C119.413 37.8072 119.566 37.8783 119.703 37.9751C119.837 38.0705 119.949 38.1963 120.027 38.3525C120.108 38.5045 120.146 38.6884 120.146 38.9067H119.37C119.367 38.7926 119.343 38.6995 119.303 38.6273C119.263 38.5531 119.211 38.4956 119.147 38.4527C119.084 38.4122 119.012 38.382 118.924 38.3637C118.84 38.347 118.749 38.3379 118.655 38.3379C118.589 38.3379 118.525 38.345 118.46 38.3589C118.397 38.375 118.337 38.3986 118.286 38.432C118.232 38.4687 118.19 38.5103 118.153 38.5663C118.119 38.6197 118.102 38.6867 118.102 38.7633C118.102 38.8381 118.118 38.8968 118.145 38.944C118.173 38.9846 118.226 39.0291 118.303 39.0674C118.385 39.1019 118.494 39.14 118.638 39.1805C118.775 39.2202 118.961 39.271 119.189 39.3308C119.234 39.3411 119.29 39.3562 119.362 39.3761C119.433 39.3939 119.509 39.4199 119.588 39.4536C119.669 39.4854 119.748 39.5292 119.828 39.5825C119.909 39.6358 119.981 39.7028 120.048 39.7759C120.114 39.8555 120.168 39.9459 120.208 40.0537C120.247 40.1629 120.27 40.284 120.27 40.4237C120.27 40.5952 120.237 40.7552 120.173 40.9029C120.108 41.0494 120.012 41.1754 119.884 41.2821C119.757 41.3904 119.601 41.4739 119.408 41.5369C119.223 41.5975 119.002 41.6274 118.755 41.6274C118.555 41.6274 118.362 41.603 118.173 41.5495C117.985 41.4971 117.818 41.415 117.676 41.3073C117.534 41.1974 117.418 41.0592 117.33 40.892C117.245 40.723 117.203 40.5226 117.205 40.2933H117.982Z" fill="white"/>
<path d="M120.738 37.7857H122.381C122.603 37.7857 122.798 37.8208 122.96 37.8891C123.119 37.9591 123.25 38.0482 123.349 38.1573C123.449 38.2711 123.52 38.4001 123.568 38.5449C123.614 38.6925 123.639 38.8381 123.639 38.9879C123.639 39.1439 123.614 39.2925 123.568 39.4367C123.52 39.5792 123.449 39.7081 123.349 39.8188C123.25 39.931 123.119 40.0216 122.96 40.0896C122.798 40.1564 122.603 40.1945 122.381 40.1945H121.536V41.5375H120.738V37.7857H120.738ZM121.536 39.5523H122.16C122.251 39.5523 122.341 39.5457 122.424 39.5291C122.509 39.5156 122.586 39.4892 122.648 39.4504C122.713 39.4098 122.762 39.3538 122.805 39.2772C122.844 39.2043 122.862 39.1063 122.862 38.988C122.862 38.87 122.844 38.7729 122.805 38.6995C122.762 38.6272 122.713 38.5683 122.648 38.5292C122.586 38.4879 122.509 38.4608 122.424 38.4466C122.341 38.4351 122.251 38.4287 122.16 38.4287H121.536V39.5523Z" fill="white"/>
<path d="M125.443 37.7902H126.247L127.873 41.5375H127.122L126.74 40.7059H124.901L124.519 41.5375H123.789L125.443 37.7902ZM125.242 39.9446H126.45L125.857 38.4955H125.852L125.242 39.9446Z" fill="white"/>
<path d="M129.169 38.4798L128.014 38.4848V37.7904H131.116V38.4848L129.972 38.4798V41.5377H129.169V38.4798Z" fill="white"/>
<path d="M131.577 37.7857H132.375V41.5375H131.577V37.7857Z" fill="white"/>
<path d="M134.346 37.7902H135.152L136.776 41.5375H136.032L135.647 40.7059H133.807L133.424 41.5375H132.694L134.346 37.7902ZM134.146 39.9446H135.355L134.764 38.4955H134.761L134.146 39.9446Z" fill="white"/>
<path d="M137.077 41.5121V37.7695H137.865V40.817H139.726V41.5121H137.077Z" fill="white"/>
<path d="M142.399 40.2933C142.399 40.4175 142.419 40.5265 142.463 40.6133C142.508 40.7008 142.566 40.7727 142.639 40.8254C142.711 40.8822 142.797 40.9225 142.892 40.9461C142.991 40.9742 143.093 40.9844 143.203 40.9844C143.272 40.9844 143.349 40.9813 143.432 40.9694C143.513 40.954 143.59 40.9335 143.661 40.8953C143.731 40.8638 143.792 40.8153 143.837 40.7535C143.888 40.6898 143.911 40.6135 143.911 40.5165C143.911 40.4161 143.882 40.3351 143.818 40.2713C143.752 40.2084 143.67 40.155 143.57 40.1134C143.467 40.0657 143.352 40.0293 143.224 40.0004C143.093 39.9703 142.962 39.9369 142.832 39.8977C142.694 39.8643 142.56 39.819 142.433 39.7689C142.305 39.7186 142.188 39.6549 142.084 39.5737C141.984 39.4907 141.904 39.3916 141.838 39.2711C141.779 39.1549 141.745 39.0067 141.745 38.8316C141.745 38.6394 141.785 38.4727 141.864 38.3306C141.947 38.1878 142.046 38.0675 142.177 37.9751C142.309 37.8812 142.452 37.809 142.617 37.7652C142.779 37.7182 142.943 37.6996 143.108 37.6996C143.297 37.6996 143.477 37.7182 143.655 37.7633C143.828 37.8072 143.983 37.8783 144.12 37.9751C144.256 38.0705 144.363 38.1963 144.442 38.3525C144.522 38.5045 144.563 38.6884 144.563 38.9067H143.789C143.782 38.7926 143.758 38.6995 143.72 38.6273C143.678 38.5531 143.629 38.4956 143.565 38.4527C143.499 38.4122 143.425 38.382 143.341 38.3637C143.256 38.347 143.167 38.3379 143.07 38.3379C143.005 38.3379 142.94 38.345 142.875 38.3589C142.81 38.375 142.752 38.3986 142.7 38.432C142.646 38.4687 142.604 38.5103 142.572 38.5663C142.537 38.6197 142.518 38.6867 142.518 38.7633C142.518 38.8381 142.532 38.8968 142.56 38.944C142.588 38.9846 142.642 39.0291 142.719 39.0674C142.803 39.1019 142.911 39.14 143.053 39.1805C143.193 39.2202 143.379 39.271 143.605 39.3308C143.649 39.3411 143.706 39.3562 143.778 39.3761C143.849 39.3939 143.927 39.4199 144.004 39.4536C144.087 39.4854 144.164 39.5292 144.246 39.5825C144.322 39.6358 144.399 39.7028 144.464 39.7759C144.53 39.8555 144.584 39.9459 144.623 40.0537C144.664 40.1629 144.686 40.284 144.686 40.4237C144.686 40.5952 144.653 40.7552 144.586 40.9029C144.526 41.0494 144.428 41.1754 144.301 41.2821C144.172 41.3904 144.016 41.4739 143.826 41.5369C143.639 41.5975 143.417 41.6274 143.171 41.6274C142.971 41.6274 142.778 41.603 142.588 41.5495C142.399 41.4971 142.234 41.415 142.09 41.3073C141.948 41.1974 141.834 41.0592 141.746 40.892C141.661 40.723 141.617 40.5226 141.623 40.2933H142.399Z" fill="white"/>
<path d="M148.659 39.6448C148.659 39.9147 148.608 40.1676 148.509 40.4057C148.409 40.6354 148.273 40.842 148.103 41.0193C147.932 41.1953 147.734 41.33 147.504 41.4317C147.277 41.5354 147.033 41.5848 146.774 41.5848C146.513 41.5848 146.269 41.5354 146.039 41.4317C145.813 41.3301 145.613 41.1954 145.443 41.0193C145.275 40.842 145.14 40.6354 145.043 40.4057C144.942 40.1676 144.895 39.9147 144.895 39.6448C144.895 39.3762 144.942 39.1246 145.043 38.8868C145.14 38.6504 145.275 38.4449 145.443 38.2681C145.613 38.0955 145.813 37.9576 146.039 37.8544C146.269 37.7522 146.513 37.7012 146.774 37.7012C147.033 37.7012 147.277 37.7522 147.504 37.8544C147.734 37.9577 147.932 38.0955 148.103 38.2681C148.273 38.4449 148.409 38.6504 148.509 38.8868C148.608 39.1246 148.659 39.3762 148.659 39.6448ZM146.774 38.4957C146.621 38.4957 146.48 38.5276 146.342 38.5866C146.21 38.6487 146.091 38.7314 145.992 38.8382C145.892 38.944 145.813 39.0658 145.752 39.2033C145.692 39.3397 145.662 39.4893 145.662 39.6447C145.662 39.8037 145.692 39.9524 145.752 40.0897C145.813 40.2278 145.892 40.3476 145.992 40.4527C146.091 40.5567 146.21 40.6407 146.342 40.7008C146.48 40.7615 146.621 40.7915 146.774 40.7915C146.926 40.7915 147.069 40.7615 147.201 40.7008C147.333 40.6407 147.45 40.5567 147.55 40.4527C147.652 40.3476 147.731 40.228 147.788 40.0897C147.847 39.9524 147.873 39.8037 147.873 39.6447C147.873 39.4893 147.847 39.3396 147.788 39.2033C147.731 39.0657 147.652 38.944 147.55 38.8382C147.45 38.7314 147.333 38.6487 147.201 38.5866C147.069 38.5276 146.926 38.4957 146.774 38.4957Z" fill="white"/>
<path d="M149.048 41.5121V37.7695H149.831V40.817H151.694V41.5121H149.048Z" fill="white"/>
<path d="M155.364 40.1188C155.364 40.6268 155.227 41.006 154.951 41.2542C154.676 41.5016 154.298 41.6273 153.813 41.6273C153.317 41.6273 152.936 41.5016 152.666 41.2556C152.399 41.0113 152.26 40.6293 152.26 40.1188V37.7857H153.063V40.1188C153.063 40.2232 153.069 40.3186 153.089 40.4175C153.104 40.5147 153.141 40.6039 153.195 40.6826C153.248 40.7568 153.325 40.8189 153.419 40.8649C153.518 40.9104 153.648 40.9332 153.813 40.9332C154.094 40.9332 154.292 40.8682 154.4 40.7361C154.512 40.6054 154.563 40.3982 154.563 40.1188V37.7857H155.365L155.364 40.1188Z" fill="white"/>
<path d="M156.965 38.4798L155.81 38.4848V37.7904H158.91V38.4848L157.767 38.4798V41.5377H156.965V38.4798Z" fill="white"/>
<path d="M159.368 37.7857H160.168V41.5375H159.368V37.7857Z" fill="white"/>
<path d="M164.344 39.6448C164.344 39.9147 164.294 40.1676 164.192 40.4057C164.092 40.6354 163.959 40.842 163.787 41.0193C163.618 41.1953 163.417 41.33 163.188 41.4317C162.96 41.5354 162.717 41.5848 162.456 41.5848C162.197 41.5848 161.953 41.5354 161.724 41.4317C161.498 41.3301 161.298 41.1954 161.127 41.0193C160.959 40.842 160.824 40.6354 160.727 40.4057C160.627 40.1676 160.579 39.9147 160.579 39.6448C160.579 39.3762 160.627 39.1246 160.727 38.8868C160.824 38.6504 160.959 38.4449 161.127 38.2681C161.298 38.0955 161.498 37.9576 161.724 37.8544C161.953 37.7522 162.197 37.7012 162.456 37.7012C162.717 37.7012 162.96 37.7522 163.188 37.8544C163.417 37.9577 163.618 38.0955 163.787 38.2681C163.959 38.4449 164.092 38.6504 164.192 38.8868C164.294 39.1246 164.344 39.3762 164.344 39.6448ZM162.456 38.4957C162.307 38.4957 162.162 38.5276 162.027 38.5866C161.895 38.6487 161.777 38.7314 161.674 38.8382C161.577 38.944 161.498 39.0658 161.436 39.2033C161.376 39.3397 161.346 39.4893 161.346 39.6447C161.346 39.8037 161.375 39.9524 161.436 40.0897C161.498 40.2278 161.577 40.3476 161.674 40.4527C161.777 40.5567 161.895 40.6407 162.027 40.7008C162.162 40.7615 162.307 40.7915 162.456 40.7915C162.609 40.7915 162.753 40.7615 162.886 40.7008C163.017 40.6407 163.136 40.5567 163.235 40.4527C163.335 40.3476 163.414 40.228 163.471 40.0897C163.53 39.9524 163.559 39.8037 163.559 39.6447C163.559 39.4893 163.53 39.3396 163.471 39.2033C163.414 39.0657 163.335 38.944 163.235 38.8382C163.136 38.7314 163.017 38.6487 162.886 38.5866C162.753 38.5276 162.609 38.4957 162.456 38.4957Z" fill="white"/>
<path d="M165.367 38.7952V41.5422H164.734V37.7768H165.367H165.653L167.278 40.1188V37.7768H167.955V41.5422H167.278L165.367 38.7952Z" fill="white"/>
<path d="M169.169 40.2933C169.169 40.4175 169.192 40.5265 169.237 40.6133C169.28 40.7008 169.338 40.7727 169.41 40.8254C169.484 40.8822 169.567 40.9225 169.666 40.9461C169.761 40.9742 169.865 40.9844 169.975 40.9844C170.044 40.9844 170.121 40.9813 170.201 40.9694C170.285 40.954 170.359 40.9335 170.434 40.8953C170.502 40.8638 170.565 40.8153 170.609 40.7535C170.657 40.6898 170.682 40.6135 170.682 40.5165C170.682 40.4161 170.651 40.3351 170.589 40.2713C170.525 40.2084 170.443 40.155 170.342 40.1134C170.242 40.0657 170.121 40.0293 169.993 40.0004C169.865 39.9703 169.732 39.9369 169.603 39.8977C169.465 39.8643 169.332 39.819 169.206 39.7689C169.075 39.7186 168.96 39.6549 168.856 39.5737C168.753 39.4907 168.673 39.3916 168.61 39.2711C168.548 39.1549 168.517 39.0067 168.517 38.8316C168.517 38.6394 168.558 38.4727 168.636 38.3306C168.717 38.1878 168.821 38.0675 168.949 37.9751C169.081 37.8812 169.224 37.809 169.387 37.7652C169.55 37.7182 169.712 37.6996 169.877 37.6996C170.066 37.6996 170.248 37.7182 170.425 37.7633C170.6 37.8072 170.756 37.8783 170.89 37.9751C171.026 38.0705 171.135 38.1963 171.215 38.3525C171.295 38.5045 171.335 38.6884 171.335 38.9067H170.558C170.554 38.7926 170.529 38.6995 170.492 38.6273C170.45 38.5531 170.401 38.4956 170.336 38.4527C170.271 38.4122 170.194 38.382 170.111 38.3637C170.024 38.347 169.936 38.3379 169.842 38.3379C169.777 38.3379 169.712 38.345 169.645 38.3589C169.582 38.375 169.522 38.3986 169.473 38.432C169.419 38.4687 169.375 38.5103 169.34 38.5663C169.308 38.6197 169.292 38.6867 169.292 38.7633C169.292 38.8381 169.303 38.8968 169.332 38.944C169.357 38.9846 169.414 39.0291 169.491 39.0674C169.573 39.1019 169.683 39.14 169.823 39.1805C169.962 39.2202 170.149 39.271 170.376 39.3308C170.417 39.3411 170.476 39.3562 170.548 39.3761C170.62 39.3939 170.694 39.4199 170.776 39.4536C170.856 39.4854 170.935 39.5292 171.017 39.5825C171.094 39.6358 171.168 39.7028 171.234 39.7759C171.299 39.8555 171.353 39.9459 171.392 40.0537C171.437 40.1629 171.457 40.284 171.457 40.4237C171.457 40.5952 171.423 40.7552 171.361 40.9029C171.295 41.0494 171.201 41.1754 171.071 41.2821C170.944 41.3904 170.785 41.4739 170.596 41.5369C170.408 41.5975 170.191 41.6274 169.945 41.6274C169.741 41.6274 169.55 41.603 169.36 41.5495C169.169 41.4971 169.004 41.415 168.865 41.3073C168.719 41.1974 168.606 41.0592 168.518 40.892C168.43 40.723 168.392 40.5226 168.392 40.2933H169.169Z" fill="white"/>
</svg>
