<svg height="65" viewBox="0 0 131 65" width="131" xmlns="http://www.w3.org/2000/svg">
<style>g.logo {display:none;} g.logo:target {display:inline;}</style>
<g id="default" class="logo"><path d="m92.126.42h38.268v38.269h-38.268z" fill="#009fe3"/><g fill="#151f37"><path d="m40.938.42v14.991h-14.5v-14.991h-9.322v38.268h9.322v-15.754h14.5v15.754h9.321v-38.268z"/><path d="m0 .42h9.322v38.269h-9.322z"/><path d="m84.331 7.889v-7.469h-26.277v38.268h26.277v-7.469h-16.956v-8.386h14.5v-7.421h-14.5v-7.523z"/><path d="m6.849 59.185h-1.32v-7.87h1.32c1.245 0 2.233.341 2.963 1.021.731.682 1.096 1.652 1.096 2.914 0 1.263-.365 2.233-1.096 2.914-.73.681-1.719 1.021-2.963 1.021m.497-12.702h-7.346v17.632h7.346c1.843 0 3.457-.387 4.844-1.159 1.386-.771 2.453-1.83 3.2-3.175.747-1.344 1.12-2.855 1.12-4.532 0-1.692-.373-3.204-1.12-4.532-.747-1.327-1.814-2.365-3.2-3.112-1.387-.748-3.001-1.122-4.844-1.122"/><path d="m32.909 50.892v-4.409h-12.46v17.632h12.46v-4.408h-6.932v-2.491h5.479v-4.158h-5.479v-2.166z"/><path d="m43.336 46.483h-5.529v17.632h10.858v-4.183h-5.329z"/><path d="m53.208 46.483v17.632h5.528v-6.65h4.98v-4.158h-4.98v-2.441h6.924v-4.383z"/><path d="m69.488 46.483v4.383h4.632v13.249h5.529v-13.249h4.681v-4.383z"/></g></g>

<g id="white" class="logo"><path d="m92.126.42h38.268v38.269h-38.268z" fill="#009fe3"/><g fill="#fff"><path d="m40.938.42v14.991h-14.5v-14.991h-9.322v38.268h9.322v-15.754h14.5v15.754h9.321v-38.268z"/><path d="m0 .42h9.322v38.269h-9.322z"/><path d="m84.331 7.889v-7.469h-26.277v38.268h26.277v-7.469h-16.956v-8.386h14.5v-7.421h-14.5v-7.523z"/><path d="m6.849 59.185h-1.32v-7.87h1.32c1.245 0 2.233.341 2.963 1.021.731.682 1.096 1.652 1.096 2.914 0 1.263-.365 2.233-1.096 2.914-.73.681-1.719 1.021-2.963 1.021m.497-12.702h-7.346v17.632h7.346c1.843 0 3.457-.387 4.844-1.159 1.386-.771 2.453-1.83 3.2-3.175.747-1.344 1.12-2.855 1.12-4.532 0-1.692-.373-3.204-1.12-4.532-.747-1.327-1.814-2.365-3.2-3.112-1.387-.748-3.001-1.122-4.844-1.122"/><path d="m32.909 50.892v-4.409h-12.46v17.632h12.46v-4.408h-6.932v-2.491h5.479v-4.158h-5.479v-2.166z"/><path d="m43.336 46.483h-5.529v17.632h10.858v-4.183h-5.329z"/><path d="m53.208 46.483v17.632h5.528v-6.65h4.98v-4.158h-4.98v-2.441h6.924v-4.383z"/><path d="m69.488 46.483v4.383h4.632v13.249h5.529v-13.249h4.681v-4.383z"/></g></g>
</svg>